<svg id="line" height="512" viewBox="0 0 64 64" width="512" xmlns="http://www.w3.org/2000/svg"><g fill="#c4a2fc"><rect height="26" rx="1" width="14" x="16.5" y="37"/><rect height="33" rx="1" width="14" x="32.5" y="30"/><rect height="42" rx="1" width="14" x="48.5" y="21"/></g><path d="m50.279 40.525-5.479-9.736a3 3 0 0 0 -5.3.129l-1.42 2.841-9.312-18.633a2.979 2.979 0 0 0 -1.683-1.482v-2.91l9.187-2.827a2 2 0 0 0 0-3.823l-9.893-3.044a1.023 1.023 0 0 0 -1.294.96v11.644a2.984 2.984 0 0 0 -1.685 1.482l-9.315 18.633-1.421-2.841a3 3 0 0 0 -5.3-.129l-5.474 9.736a3 3 0 0 0 2.615 4.475h43.16a3 3 0 0 0 2.614-4.475zm-23.194-31.883v-5.292l8.599 2.65zm-1.895 7.378a1.03 1.03 0 0 1 1.789 0l13.487 26.98h-28.766zm-21.557 25.485 5.476-9.736a1 1 0 0 1 1.766.043l2.091 4.188-3.5 7h-4.961a1 1 0 0 1 -.872-1.495zm44.032 1.495h-4.965l-3.5-7 2.091-4.184a1 1 0 0 1 1.766-.043l5.476 9.736a1 1 0 0 1 -.868 1.491z" fill="#151a6a"/></svg>