<svg id="line" height="512" viewBox="0 0 64 64" width="512" xmlns="http://www.w3.org/2000/svg"><g fill="#c4a2fc"><path d="m24 56a4 4 0 0 1 -4-4 1 1 0 0 0 -2 0 4 4 0 0 1 -4 4 1 1 0 0 0 0 2 4 4 0 0 1 4 4 1 1 0 0 0 2 0 4 4 0 0 1 4-4 1 1 0 0 0 0-2z"/><path d="m52 20a4 4 0 0 1 4 4 1 1 0 0 0 2 0 4 4 0 0 1 4-4 1 1 0 0 0 0-2 4 4 0 0 1 -4-4 1 1 0 0 0 -2 0 4 4 0 0 1 -4 4 1 1 0 0 0 0 2z"/><path d="m14 23a7.008 7.008 0 0 1 7 7 1 1 0 0 0 2 0 7.008 7.008 0 0 1 7-7 1 1 0 0 0 0-2 7.008 7.008 0 0 1 -7-7 1 1 0 0 0 -2 0 7.008 7.008 0 0 1 -7 7 1 1 0 0 0 0 2z"/><path d="m40.978 38.937a1.729 1.729 0 0 0 .48 1.708 6.42 6.42 0 0 0 .948.6v-4.037a2.246 2.246 0 0 0 -1.428 1.729z"/><path d="m44.7 44.357-.29-.1v5.414a3.115 3.115 0 0 0 2.053-2.427 2.487 2.487 0 0 0 -1.763-2.887z"/><path d="m43.5 30.625a12.875 12.875 0 1 0 12.875 12.875 12.889 12.889 0 0 0 -12.875-12.875zm4.931 16.946a5.076 5.076 0 0 1 -4.025 4.17v1.259a1 1 0 0 1 -2 0v-1.18a6.263 6.263 0 0 1 -3.454-1.194 1 1 0 1 1 1.1-1.674 4.3 4.3 0 0 0 2.358.872v-6.36a10.172 10.172 0 0 1 -2.182-1.245 3.706 3.706 0 0 1 -1.212-3.654 4.216 4.216 0 0 1 2.884-3.307c.173-.052.341-.092.507-.128v-1.13a1 1 0 0 1 2 0v1.054a5.393 5.393 0 0 1 2.712 1.192 1 1 0 0 1 -1.348 1.477 3.279 3.279 0 0 0 -1.364-.637v5.034c.3.114.611.23.956.352a4.457 4.457 0 0 1 3.068 5.099z"/><path d="m43.5 24a19.5 19.5 0 1 0 19.5 19.5 19.523 19.523 0 0 0 -19.5-19.5zm0 34.375a14.875 14.875 0 1 1 14.875-14.875 14.892 14.892 0 0 1 -14.875 14.875z"/></g><path d="m50.5 32.482-7.167-18.806a2.991 2.991 0 0 0 -1.328-5.676h-8.762a4.487 4.487 0 0 0 -7.238-5.294 4.487 4.487 0 0 0 -7.238 5.294h-8.762a2.991 2.991 0 0 0 -1.328 5.676l-7.164 18.807a7.765 7.765 0 0 0 7.249 10.517h34.486a7.764 7.764 0 0 0 7.252-10.518zm-20.995-29.482a2.5 2.5 0 1 1 -2.5 2.5 2.5 2.5 0 0 1 2.5-2.5zm-9.5 2.5a2.5 2.5 0 1 1 2.5 2.5 2.5 2.5 0 0 1 -2.5-2.5zm-10 4.5h32a1 1 0 0 1 0 2h-32a1 1 0 0 1 0-2zm33.243 31h-34.486a5.763 5.763 0 0 1 -5.38-7.806l7.312-19.194h30.622l7.312 19.193a5.763 5.763 0 0 1 -5.38 7.807z" fill="#151a6a"/><path d="m13.005 36h-3.243a1.758 1.758 0 0 1 -1.642-2.382l1.624-4.262a1 1 0 1 0 -1.869-.712l-1.625 4.263a3.761 3.761 0 0 0 3.512 5.093h3.243a1 1 0 1 0 0-2z" fill="#151a6a"/></svg>