<svg id="Слой_1" data-name="Слой 1" xmlns="http://www.w3.org/2000/svg" viewBox="0 0 242.9 111.19"><defs><style>.cls-1{fill:none;stroke:#888;stroke-width:0.5px;}</style></defs><path id="LT" class="cls-1" d="M151.92,179.88l2.66.38.31.74,1.13.37.45.71.58.35.08,1-.81.16-.28,1.06-.3.18-.24.59-.77,0-.68.75-1.22-.11-.71-1.44-.74-.18-.26-1.08-1.07-.36-.84-.65-.45-1.1-.13-.51,1.84-.48.83,0Z" transform="translate(-138.47 -107.76)"/><path id="LV" class="cls-1" d="M158.84,178.93l-.34.92.55.43.48,1.05-.75.31-.15.55-1.57.25-.58-.35-.45-.71L154.9,181l-.31-.73-2.66-.38-.63.38-.83,0-1.83.48a5.25,5.25,0,0,1-.26-1.71c0-.19.16-.29.4-.28s.38,0,.39-.12l.26-.75.23-.52,1.16-.86,1.17,1.2,0,1.05c.71.31,1.15.34,1.33.09a8,8,0,0,0,.42-2.38l.93-.05,1.38.13.53,1.14,1.49.36.19.58.53.28Z" transform="translate(-138.47 -107.76)"/><path id="KZ" class="cls-1" d="M234.62,193.87l1.1.47-.15.92,1.1,1.85.81.11.62-.64.8.32,1.51.33.59-.43,2.05.4,1.62,2.45.49.89,2.21-.09,1.41.51-.39.38-.18.59-.05,1-1.29.24-.27,1.1.46.38-.11.83-1.42.41-2.34-.56-.56,2.54-.49.36-.14,1,1,1.18-.53.66-.88-1-1.37-.09-1,.9,1.5,2,.54,2.71-.47.44-.42,1.2-.86-.33-1.85-.28-1-.84-1.9-.34-1.9.07-1.16-.1-.83-.55-1-.14-.68.73.27,1.08-1.17-.09-.53-.72L226,215.5l-.35.93.2.58-.25.24-.68-.23-1.64.8-.75.87h-1l-2.07-.31-1.09-1.62-.56-1.91-.6-.08-.71-1.85-1.22.17-1.59,0-1,.28-1.91-.43-3.34-4.8-5.71,1.31.33,7.87-1,.14-.87-1.73-1.23-.61-1.14.18-.78.52-.34,1.13-.28-.67-.1-.64.11-.26c.09-.17.17-.26.23-.26l.16-.26a1,1,0,0,0,0-.35s-.15-.14-.44-.3a2.22,2.22,0,0,1-.65-.46,1.07,1.07,0,0,0-.56-.37l-.35-.13-.46-.09c-.07-.07-.09-.23-.05-.47l.08-.37-.3-1.35-.58-.62-.27.38a1.9,1.9,0,0,1-.63-.68.36.36,0,0,1,0-.47l.22-.13.62.32.29.2.59.3.24-.22-.42-.65a.67.67,0,0,1,.11-.61l.4-.66a.24.24,0,0,1,.37-.1l.19.18.88,0,.68.37.58,0-.45-.43-.62-.48.3-.22.23-.53c0-.07,0-.14-.06-.23l-.09-.11.29-.53.11-.36L197,205l-.46-1.07-.5-.24h-.57l-.11.4-.62-.14c-.35-.54-.75-.76-1.18-.68l-.82.42-.74.61-.48.5-.5.09h0l-1.26-.45.52-.75-.26-.94-1.68-.53-1.25-1.45.07-.54.5-.07.16-.61-.63-.36.33-1.84.75-.86.48.07.17,1.2.83.06.13-1.87.45-.14.56-.9.48-.07,1-.61.94-.28.9.61.82-.38h1.32l1.07.36.63.94-.1.61.61.71,2-.12.94-.69,1.36.26.68-.39,1.1.17.37.74.63.44.61.1.42-.43,1.35-.15.52-.77-.54-1.06-1.14-.73-.21-.44.93-.64-.27-1,.41-.43.32-1.27-.18-.74.52-.61,1.51.21.62-.39,2.26-.29,1.08-1.11,2.19-.17,1.09-.4,1.05-.9,1.33-.21.76.42,1-.05,1.41,2.61,1.29.5.78-.41.95.67-.13.92,1.42.32,1.25-.66.48-1.09.71.12.33-.8,1.17.59-.11.72,1.07,1.3.83,0,1.88,2.89Z" transform="translate(-138.47 -107.76)"/><path id="RU" class="cls-1" d="M302.71,120.31l.64-.11.7.19,1,.45a.93.93,0,0,1,.5.8l.67.41-1.29.43-1.69.27-1.21-.26-1.17.25.31-.69.5-.65.09-.6.29-.59Zm1.62-6.36.34.55-.27.38a3.18,3.18,0,0,1-1.07.36h-.82l-.55-.59-.76-.52-.09-.74-.29.14a1.52,1.52,0,0,0-.53.57.47.47,0,0,0,.09.63l.31.16v.61l1.89.57-.06.41-1.26.14-.58-.18-.74.82-.85.18-.52,0-.82-.75,0,.52.87,1.06-1,1c-.16.19-.37.09-.65-.31l-.36-.66-1.11,0-1.22-.88a1.38,1.38,0,0,1-.4-.5l-.11-.29-.73.09,0-1-.14-.43.57-.43-.21-.76.31-.68,2.3-.29.27.35.84-.1.86.43.21.76.78-.4-.5-.9-.92-.76.6-.64,1.31.18.77.42,3.08-.49-.09.61.83,0,.72.61Zm3.08-1.33h2.36l.06.43.51,0,.52-.76,1.07.37,1.12.15.21.76-1.38.32-.12.81-1,.28-1.24,0-1.22-.13-1-.17-.67-.41-.63-1.43.38-.45.78,1,.55-.14-.32-.66Zm-.49,11.75,2.41.06,1.34.14c.07.08.05.16-.05.25l-1.15,0-.72.82.05.33,2.44-1.32.12.75-.52.75.54.49-.53.12-.37-.25.08.84.85.53.64-.13.34-.87-.17-.32,0-1.15.32-.88.36-.36h1.95l.66.19,1.32.88-.08.52-.87-.33-.13.9h2.16l-.08.6,1.2-.45,1.2,1,1.38-.14,1.2,1-.41-.78,1.07-1,1.68-.55,2.44-1.1.28.67.52-.63h1.53l.45.48.66-.23.45.16a3.07,3.07,0,0,1,.8.45c.3.25.41.47.32.67l0,.82-.19.59.75.51.13.44.72.11.22.64.63-.1.79.93,0-1,.49-.54,2.26-.61.91-.58.55.11.86.08,2.2-.19.53-.12-.32-.67c-.06-.14,0-.23.12-.26h.23l1.16.59.31.77.27.14.91.14,1,.28.57.45a1.79,1.79,0,0,0,1,.35l.43-.86a2.47,2.47,0,0,0-.22-1.37l-.74-.63-.53-.58-1.36-1.23,1.07-.88h.7l1.3-.43.55.33,1,.11a1.83,1.83,0,0,1,1-.11l.51.13.66-.21,1-.78,1,.24-.17-.32.89.22.94,0,.32.58.64-.13.91.15.05-.41.62.09h.82l.91.15.9.85.31.77.61.69,0-.51.53,0,1.49,1.06.16.43.87.34.06-.41,1.19.38,0,.52,1.19.38-.35-.46,1.77.56.13.52.57-.31.53-.14.62.81.45.38-.06.3a1.08,1.08,0,0,0,.13.65.84.84,0,0,0,.64.5l.14.53-.21.7h.21l.61,0q.5.08.81.84a.64.64,0,0,0,.28-.47c0-.13-.09-.23-.31-.32l-.36-.09-.57-.29.43-.14a1.42,1.42,0,0,0-.39-.88l-.52-.36-.33-.19-.17-.34.66-.2,1.28.39.09-.59.79.2,1-.16.94.55,1.27.49.55.29,1,.57a.73.73,0,0,0,.62.16l.2-.15.36.37-.55.85a2.41,2.41,0,0,0-.25.83l-.06.56v1.34l-1.07-.37-.41,0-.57.24-.69-.1.44.48.48.28.79.93a.74.74,0,0,1,.17.79l-.23.35.92.73-.52-.07.27.2.36.52c.09.29-.08.5-.5.66l-.81-.86.21.65-.94.07-.7-.19-.72-.63-.36-1.1-.34.9-.38.46-1-.45-.54-.61-.77-.42-.51-.7-.28-.86-.83.08-.58,1.06-.74.1-1.77-1.29a4.29,4.29,0,0,1,0-1.34v-.94l-.1-.43-.28,1.2-.73-.73.17,1.06c0,.22-.08.31-.35.27l.1.72.35.46.63,1.25a3.81,3.81,0,0,1-.14,2.44,5.31,5.31,0,0,1-.87,1.75l.1-.72-.59.53-.42,0a2.3,2.3,0,0,1-1.35,0,.82.82,0,0,1-.53-.47l-.07-.34-.17.07.43.91-1.09.46-.33.4.46.13.67-.32,1.06-.25c.23-.06.4.05.52.35l.09.46.35-.27.18-.58.69.29.59.81-.4.67.83-.08.56,1.12-.4.55,1,.26.73.71.71.22a2.74,2.74,0,0,1,1.07.56.68.68,0,0,1,.07.77l-.26.44.19.75-.6,0-1.17-.54a1,1,0,0,0-1,.35l-.43.59-.56.18a1.29,1.29,0,0,0-.71.55l-.65,1.78a5.17,5.17,0,0,1-1.25,1.46l-.13.81-.74.82,0,.82-.82.71-.2,1.41-.67.32-.33.78.24,1.27-1.07-.46-.05-.42L361,159l-.8-.22-1.08.26-.94.89L358.1,161l-.67.3-.31.69-.29,0-.07-.94-.31-.77.38-1.18-.79.5,0,1-.48,1.14a4.92,4.92,0,0,0-.23.83c-.05.33-.31.26-.8-.21a2,2,0,0,0-.5-.79l-.65-.08a1.11,1.11,0,0,0-.63.39,1.38,1.38,0,0,0-.1.87l.1.58.14.44.09.73a7.14,7.14,0,0,0,.16,1.68l.09.93-.65,1.86.47,1.11.21-.8.13.08a1.57,1.57,0,0,0,.71-.16c.32-.13.53.07.64.6l.09.84,0,.24a.71.71,0,0,0,.3.43.76.76,0,0,1,.28.77l.3.86.74.16c.27,0,.47.47.59,1.29l0,.51.22.64h-.72l-.52-.68-.11-.75-.25.38v.73l-.55.12.63.72,0,1,.12,1.26.4.78.19.75-.53.85-.9-.12-.59.43-.29.67.3.67-.38.45.55.59-.51.56-.4,0a.54.54,0,0,0-.41.58,3.23,3.23,0,0,0,.5,1.62l.21.58a2.11,2.11,0,0,1,.16,1,2.87,2.87,0,0,1-.37,1.09l-.61,1.45-.22,1.42-.31-.57-.7-.92-2.1-4.76-.17-.84-1.44-1.56-.62-2-.73-1.44-.37-1-.92-1.47-.1-2.07-.08-.6a1.59,1.59,0,0,1,.5-.9c.3-.3.41-.52.33-.68l-.22-.13-.18-.85L345,171l.4-.34.79.13,0-.54.21-.68.66-.22.39-1.28.9-1.13.37-.35-.14-1.26.44-.76.1-1.44c.47-.41.69-.72.65-.93l-.18-.5-.12-.27.46-1.06.93-.79,1-.07.1-.71-.28-1-.39-.88.55-.12-.53-.7-.07-.94-.3-.67.14-.31a.82.82,0,0,1,.37-.42l1,0,.2-.6-.77.31a2.72,2.72,0,0,1-1.14-.69c-.1-.15-.29-.08-.56.21l-.36.48v.62l-.57.43.13.35a3,3,0,0,0,.52.78,1.21,1.21,0,0,1,.34,1.19l.19.75-.45-.38-.66-.4-.6.52-.24,1,0,.36a1.29,1.29,0,0,1-.09.66,1.13,1.13,0,0,1-.39.55l-.55,1-.44-.48-1.2-1c-.23-.16-.29-.49-.19-1l.24-.73-.49-.18c-.12-.06-.18-.19-.16-.4l.09-.54.05-1-.95,1.59-.07-.93-.84.08-.13.81-.67.42-.83.08.06.95-.58.34-.39,1.28-.31.66.51.9-.76.94-.61,1.25.31.77-.41.65.57.29.35-.26,1.09.36.09.84a10.69,10.69,0,0,1-1.54.61l-.63.11-.66.21a1.87,1.87,0,0,1-.42.76c-.17.19-.6.18-1.29,0l-.22.7-.78.4c-.44-.2-.65-.44-.61-.71l.14-.45a.77.77,0,0,1,.58-.16.85.85,0,0,0,.82-.71l-1,.37c-.17.06-.26,0-.27-.17l0-.27-1.42-.22-.84-.64-.62,0c-.44,0-.69.15-.76.35a.75.75,0,0,0,0,.72l-.49.55-.12.71-.76-.42-.57.43-.84.08-.46-.38-.59-.3-.47.45.86.45-.41.65-.76-.42-.61-.71-.55.24-1-.26-1.47.21a2.5,2.5,0,0,0-1,.64l-.57.55-.42,1.81-.38.87.05.68-.58,1.16v.2l-.45,1,0,.51-.42.77-.11.55-.63.72-.24.85-.37.82a3.68,3.68,0,0,0-.18,1.17l-.16.43-.19.23-.43.55c-.23.27-.39.39-.48.35s-.17,0-.28.21L317,183l-.21.42-.53.38-.3.37.45,0a.54.54,0,0,1,.39.21l.49.09.62-.33h.47l.37.59.17.2.23.36c0,.15-.08.29-.38.42l.08.29a1,1,0,0,0,.33.44c.29.18.48,0,.56-.6l-.06-.3-.24-.09a.41.41,0,0,1-.11-.37l0-.27.12-.18.11,0,.42,0c.29.08.32.23.08.43l.22.28.39.18-.34.56-.05.4.41,0,.64.51c.16.12.15.06,0-.2l.29-.22.25-.69.29.87v-1.09l-.22-.22.08-.56c0-.1.13-.1.31,0l.29.18.48-.07.39-.48.43.53.87.4.08.42.3.55,1.06.88.48.22.2.4-.89.71.62-.17.46.22.06.71-.07.46.43.63.77.27.06.38.15.34-.37.71.05.74-.08.91v1.08l.2.44.09,1.47.29.45,0,1.12.28.25.22.7c0,.11.12.23.31.36l.06,1.24.21.76a1.12,1.12,0,0,1,0,.73l-.05.6-.52.81-.64.52-.23.54-.47,1.12a2.72,2.72,0,0,0-.31.78l-.24.73a1.5,1.5,0,0,0,.15.81,1.09,1.09,0,0,1-.3,1l-.24.89-.18.64-.26.54a.74.74,0,0,0-.12.47l0,.59-.07.46-.16.33-.39.3c-.18.15-.25.29-.2.43s-.08.46-.37,1l-.54.93a1.21,1.21,0,0,0-.06.56l0,.55c-.05.17-.25.2-.62.07l-.13.24-.46.19-.18-.09h-.63l-.22-.28-.6,0-.38.15,0-.52-.64-.52-.57-.27-.51.53-.17.14.09.88.24.38-1.08-.3.48-2.3-.93-2.23,0-1.67.93-.56h1.94l.13-.94-.42-1.75.34-1.49.17-2.06.71-1-.22-2.39-.4-.07-1,.4-.27,1-1.27.1-.32,1.19h-2.09l-.4-1-1.23-.19-1.11-2-1.16-.73-2.17-.32-1.53-1.06L309,197l-2.86-3.36-1.1-2-.81-1.1-2.18-.46-.33-.61-3.19-.05-2,1-.69,1.85,1.24.19.19,1.56-.28,2.89-1.11.94-.1,1.52-1.38.93-1.6-.51-.18-.73-1.08-.29-1,.54-.41-1-1.64-.24-.81.73.14,1-2.33.64-1.25,0-1,.54-3.31-.36-.95-1.11-4.32-1-1.15,1.23-1.35-.34-1.35-1.31-.25-1L268,195.28l-2.72-1.38-.89.29-.42.92-.89.43-.15.94,1.7,1.79-.32,1.21h-1.1l-1.33.37-2.29-.48L259,198l-3.82-.69-1.38.91-.84,1-.83,0-.77.44-.12.83-1.63.6-.81-.13-1.4-.51-2.22.09-.48-.9-1.63-2.44-2.05-.4-.59.42-1.51-.32-.8-.33-.62.64-.81-.11-1.1-1.84.15-.93-1.1-.46L232.74,191l-.82,0-1.08-1.31L231,189l-1.17-.59-.33.8-.71-.12-.49,1.09-1.25.65-1.41-.31.13-.93-.95-.66-.78.4-1.29-.49-1.41-2.61-1.05,0-.76-.42-1.33.21-1,.89-1.1.4-2.18.17-1.08,1.11-2.26.3-.62.38-1.51-.21-.52.62.18.73-.32,1.28-.41.43.27,1-.93.64.21.44,1.14.73.54,1.06-.52.77-1.35.15-.42.43-.61-.1-.63-.44-.37-.74-1.1-.18-.68.4-1.36-.27-.94.7-2,.12-.6-.71.1-.62-.64-.93-1.07-.36H195l-.82.38-.89-.62-1,.29-1,.6-.49.07-.56.91-.45.13-.12,1.87-.83,0-.17-1.21-.48-.06-.75.86-.33,1.84.63.36-.16.61-.5.07-.08.54,1.26,1.45,1.68.52.26.95-.52.75,1.26.45h0v.47l-.67.15a1.55,1.55,0,0,1-.33.52,1.28,1.28,0,0,1-.43.28l-.46.05-.56-.2-.62,1.33-.11.93a1.56,1.56,0,0,1-.27,1.16.25.25,0,0,0,0,.42.5.5,0,0,0,.25.15l.92.19c.23,0,.29.32.18.83l-.33,1.09a1.5,1.5,0,0,0,.33,1.15l1.35,1.74a3.19,3.19,0,0,1,.54.92l-.94.18-.28.46-.54-.08-.44-.41-.12-.51-.59-.3-1-.27-.19-.66-1-.56-1-.21-.56-.51-1-.69-.44-.42-1.17,0-1.74-.46-.37-.46-1.84-.22-.92.41-.66-.53a3.9,3.9,0,0,0-.78-.58l-.84-.35a2.27,2.27,0,0,1-.76-.56l-.26-.31-1.19-.46A.65.65,0,0,1,172,208a.84.84,0,0,0-.21-.56l-.35-.18h-.06l.22-1.17.31.16.53-.14.06-.44a2.65,2.65,0,0,1,.35-.94c.15-.28.33-.41.53-.4l.22.09a.64.64,0,0,0-.34-.56l-.51-.42-.31-.32.95-.18.77.42,0-.52.38,0a3.29,3.29,0,0,0,.8-.23,1.34,1.34,0,0,0,.68-.51,2.06,2.06,0,0,1-1.13,0h-.43l-.65.13.27-.79.52-.21,1.11,0,.82-.38,0-1.12.25-1.21.71-.61-.29-.86-1.44-.14-.41-.55-1.61.11-1.4-1-1.67,0-.79-.82v-.63l-.39-.6-1.47-.44.67-1.29-.41-.48-3.06-.59-.53.27-.63,0,.27-.87-.53-.7.19-.82h1.46l.4-.77-.56-.51-.36-.81-.85-.4-.41-1-.17-.79.32-.72-.73-1.28-1-.21-1,.2-.74-.73-.79-.27-.48-1-.55-.43.34-.92-.53-.29-.2-.57.55-1.26-.31-1.3,0-1,.72-.73.13-1,.46-.23.42-.36,1.29.26.65-.21.17-.5-2.37-.94.34-.9h-.06l.56-.72,1.05-.8.69-1.15.42.06,1.61-2.49-.4-.8-.58-.4-.82-.74.18-1.33-.69-.94v-.63l-.71-.85.27-2.67-.89-1,.13-1.65.8-.52.19-1.23-1.28-1.22,0-1.57.7-.53.12-1.56,1.41-.43.44.27.65-.2.19-.6.77.06c.5.09.74.21.72.38s-.24.41-.59.43l.56.49.83,1.37-.07-.93H167l1.81.17,1.76.52.6.35,1.58,1.17,1,.89.36.36.3,0,.79.25a1.21,1.21,0,0,1,.62.73l.13.51.68,1-.23,1.37c-.23.93-.55,1.46-.94,1.57a6.89,6.89,0,0,1-2.92.07l-1.13-.37-.43-.28-2.49-.67L167,154.5l-1-.16-.65-.6-.15-.33-1.42-.22,1.34.81.36.37-1.54.49.69.32,1.06-.15.47.28.08.83,1.09.39.27.14a1.41,1.41,0,0,1,.47.47l.48.92-.39.55.43.59-.17,1.12-.16.29,1,.77.47.28.5.8,1.11.27.47.28.6-.52.88.34.17-.39-.4-.79-.89-.24-.14-.55a.29.29,0,0,0,0-.24.84.84,0,0,0-.51-.46,2.61,2.61,0,0,1-.66-.44l-.17-.2,1.4-.3,1,.67.5.5c.36.32.63.42.82.31l1-.47,1,.48-.47-1,.09-.5-.74-.64v-.43c0-.28.11-.44.24-.46l.86-.25a1.62,1.62,0,0,0,.84-.63l.26-.75a.39.39,0,0,1,.5-.25l1.7.39.65,1.12.63.71-.23-.74c-.13-.51-.14-.83-.05-.95a1.51,1.51,0,0,0,.18-1.11,4.45,4.45,0,0,1-1.06-1.19,1.5,1.5,0,0,1-.18-.95,5.17,5.17,0,0,0,.05-.92,6.29,6.29,0,0,0-.25-.9l-.18-.41-1-1,.42,0,.33.31a1.77,1.77,0,0,0,.7.37l.95-.11h1l1.35.6,0,.31.09.05.27.31.39.74c.11.32.06.46-.16.43l-.66-.3a.76.76,0,0,0-.73,0l-.58.53-.25.5a1,1,0,0,0,.36.66,11.21,11.21,0,0,0,1.4,1.14l.43-.14h.2l.49.11.81.13-.2-.66.36-1.09.43-.53.3-.17.21-.7c0-.17.24-.32.64-.46l.59-.18,2.92-.91.6.2.06-.4,2.43-1.81.44,0h.8c.19,0,.14.09-.16.18l-1,.28a1,1,0,0,0-.52.5l-.1.34.15,1-.69.12-.3.89.9.22,1.34-.62-.5-.8.84-.81.78.17a4.42,4.42,0,0,1,1.3.46l.6.16.13-.16-.46-.38-.27-.35.43-.12,1,0a1.33,1.33,0,0,0,1-.18l.4-.34.37.35v.47c.05.32.18.49.38.52l.6.05c.16-.06.26-.27.31-.63a1.89,1.89,0,0,0,0-.89l-.15-.59a1.38,1.38,0,0,1,.18-.7l.19-.39.7.21-.12-.62.74.26,1.2.54.67-.62,2,.9.53.73,2.91.83L211.5,151c.25.66.47.87.65.62a2.22,2.22,0,0,0-.08-1.56l-.26-1a3.33,3.33,0,0,1-.88-1,2.39,2.39,0,0,0-.86-.87l-.43-.15-.59.41a1.51,1.51,0,0,1-.27-.87l.09-1.22c0-.17.16-.27.41-.3h.36l-.53-1.33-.26-.35c-.19-.23-.33-.28-.39-.16s-.14.07-.05-.53.24-.8.47-.86l1-.16.42.13a.49.49,0,0,0,.56-.39,2.85,2.85,0,0,0,.08-1l-.08-.47a3.1,3.1,0,0,1-.07-1.44l.34-1.19.24-.58.6.34.16.3.59-.14.54.2,1.91.36.75,1.24-.58,2.69.24.21.6.34c.34.12.59.8.76,2.05l-.56.24.57.4-.09.69.16,1,.67,1.11.7,1.65.78.32,0,.43-.34.34c-.23.26-.33.45-.31.59l.15.55a1.43,1.43,0,0,1,.1.62c0,.27-.35.5-.93.7l-.46,1.06v.82l-.85,1a5.32,5.32,0,0,1-1.57-.63c-.11-.1-.09,0,.06.29l.25.48a.94.94,0,0,1-.66.21l-.65-.25-.42-.22.58,1,.48,0,.78-.12a1.11,1.11,0,0,1,.91.12l.64.6.4-.55.28,0c.63,0,1-.07,1.18-.25a6.81,6.81,0,0,0,.77-1.75l.16-.29.7-.83c.31-.29.43-.55.37-.77l-.21-.24-.29-.87.05-1.23.33-.49.54-.51a2.43,2.43,0,0,0,.9-.51l1.42.93,1.11,1.6v1.54l.68.36,1.58.52,1.61.28-.69-.29-.64-.62-1.48-.4-1.32-3.08-1.45-1.43-1.19-.39-2.09.86-1.17-.48.13-1.63-.64-1.33,1.08-1-1.1-1.71-1-1,.1-1.42,1.2-1.17a1.51,1.51,0,0,0,.34-1.17l-.5-.6.43-.89.93.66.42.67-.45,1.69-.25.38,0,1,2.63,1.19,1,.65.85-.17.64.6.61,0-.69-1.65-.49-.16-.53.85-1.32-.81h-.52a2.31,2.31,0,0,1-1-.31,1.37,1.37,0,0,1-.59-.71l-.08-.42.26-.36.59-.55a1,1,0,0,1,.73-.05l.79.26a1.7,1.7,0,0,1,.59.48,1,1,0,0,0,.53.4c.27,0,0-.58-.78-1.85l.7.19,0-.61-1-.45.47-.43c.48-.14,1.16.15,2.05.87a17.78,17.78,0,0,0,2.35,1.57l.24.56,2.14-.53.62.09-.24.89-.54.85-.33,1,.15,1,.57,1.12,1.25.68.28,1,.85.53.48-.54a3.21,3.21,0,0,1-1.2-1l-.39-.88.09-.62.42-.76c.09-.19-.14-.77-.68-1.75l-.45-.47.27-.53a1,1,0,0,0-.06-1,.85.85,0,0,0-.88-.28l-.56.18.06-.4-1.58-.54-1-.65.14-.29-.11-.65-.58-.37-.32-.68.44-.13-.55-.49.44-.88,3.18-.69.64-.22.77.42v-.61l1-.69.93.13.18.85-.94.8.45.57.18-.59,1.48-1-.18-.95-.93-.66,1-.28-1.19-.36-.52-2,.65-.32.37-.36,1.19-.35-.33-.65,1.15-.89-.14-.43,1.22.17,2-.12-.63-.52,1.92-.54.19-.7,1.42-.42,1.53-.71-.16,1.2,1.24-.75.61.81.91-.6.11.64.61-.74,1.49.52-.7-.92-.74-.62-.3-.86,1.18-.25,1.77-.17.24.54.93-.06.36-1-.87.3-.55-.59-.37-.27.06-.4-.44-.57.83-1.42.45-.26a2.22,2.22,0,0,1,.25-1.1,1,1,0,0,1,.73-.47l.52,0a.41.41,0,0,0,.17.46l.37.13.11.11.06.13-.29.53a.61.61,0,0,0,.06.56.43.43,0,0,0,.46.18h.1a.3.3,0,0,1,0,.29.29.29,0,0,1-.29.1l-.32-.07a.19.19,0,0,1-.13.18l.14.14,0,.2c0,.1.15.15.38.15l.12-.06c.09,0,.13,0,.12-.1l.19,0c-.05.16,0,.24,0,.24l.17,0h1l.2.27a.28.28,0,0,1,0,.29l-.34,1.09.8-.71.3-.59,2.77-.73,1-.07.89.22,1.38-.32,1-.37.69.29.24.54.34.46.48-.44.59.28.94.56q.46.38.15,1.77l-1.45.11-1-.25.82.94.56.39.28-.47.62.59-.14.3.41.78-.13.91c0,.18-.24.28-.65.3s-.65.11-.66.24a3.1,3.1,0,0,1-.57,1.14,2.7,2.7,0,0,1-1.21.47.62.62,0,0,0-.43.15l-.22.17.68.19-.57.43-1.3.45-.6.63-1.63,1.23-1-.05.1.25.32.42c.18.17,0,.56-.58,1.16l-.88,1.12.68-.32.47.28.61-.74,1,.24-.36-1.19.46-.35,1.9-.25.38-.46,1.08,0a7.77,7.77,0,0,0,1.2-.16,1.46,1.46,0,0,0,.79-.43.59.59,0,0,0,.14-.27c-.16-.3-.35-.36-.59-.18a3.09,3.09,0,0,1-1,.33l-.78.13,0-.42a1.15,1.15,0,0,1,.17-.68,1.31,1.31,0,0,1,1.4-.44l.43,0V128l.33-.13.7.08a3.39,3.39,0,0,1,.84.62l.1-.61.29-.67,1.19,1.09-.1.71.22.65.11,1.35.52-.64a.49.49,0,0,0,.05-.48l-.3-.69c-.09-.27,0-.39.15-.38l.3.12,1.18-.44.94,0a.82.82,0,0,0,.74-.11l.24-.27.64-.22,1.38-.22.84.62-.13.4a.74.74,0,0,0,.07.64c.17.23,1,.15,2.61-.25l1.12-.57.68.19c.84-.08,1.31-.25,1.43-.51s-.35-.5-1.36-.72l-.12-.53a1.86,1.86,0,0,0,1.2-.56c.17-.25,0-.31-.59-.18l.1-.71.8-.5.67.4.58.18.31,0,.76.51.55-.33.77-.31.67.31.32,0,.63,0,1.22.18.75.4.25.45-1.13.79-.3.57-.23.28-1.46.72.06.42-.2.58,1.37,1.33-.52-.8-.11-.62.9-.51.44.48.39.07.8.31a2.26,2.26,0,0,1,.75.52l.52,0-.34-.56,1.54.83h-.61l.12.55.68.39.33.1.56.14.37.4a2.82,2.82,0,0,0,.8.78,1.74,1.74,0,0,0,1.18.28,1.86,1.86,0,0,0,.79-.3.28.28,0,0,0,0-.43l-.42-.55a3.66,3.66,0,0,1-.29-1,3.16,3.16,0,0,1-.07-.89l.06-.74c.05-.35.16-.53.33-.55s.47.34.58,1.11l1,1.07,1.3-.45.5.07.85.65.56-.33-.86-1.16.37-.56,1.13.06.4.15.55.39.55-.14.52,0,.66.51.87.33-.11-.74c.57-.61.84-1,.8-1.23a.53.53,0,0,0-.29-.35l-.25-.13.22-.19a1.52,1.52,0,0,0,.22-.89c0-.38-.22-.43-.69-.14l-.7.55-.35-1.16,1-.59.6-.53.78.21a1.83,1.83,0,0,1-1-.87c-.17-.28-.15-.43,0-.45l.84.06a4.81,4.81,0,0,0,1.14-.25,4.91,4.91,0,0,1,1.19-.25l1.52.19ZM300.43,130l.84-.28-.36-.25.87-.29.56.49-1,.06.54.46-1.05.07-.37-.26Zm-.37-9.12-.24-.54.19-.58.91-.6.5.79-.76,1.14-.6-.21ZM292,116.64l-.44-1.39.93.85,0,1.15-.52-.61Zm-4.23,10.25.07-.5.46.35Zm-1,1.1.48.26.94,0,.89.23-.15.39-.8-.21.71.73-.24.26-.89-.22.22.54h-.61l-.78-.3-.94-.64.55-1Zm.27-.38,1.27-.23-.18.48-.53.15-.56-.4Zm8.16-5.25-.85-.53-.78-1,1.27.49Zm69,56.46.08-.61,1.59.55.32.67ZM355.82,165l0,.73-.86,1.49-.08-.64-.27-.67,0-.73.31-.67.73.24Zm-12.74-39.07,0-1.24.87-.2.63.29a1.9,1.9,0,0,1,.88.77.38.38,0,0,1-.2.58l-.42.06-.68.32-.7-.22Zm13.41-6.67-.54,0,0-.92-.08-.84,1.08-1,.95-.16,1,.35,1-.37,1,.44.26,1.08-1.42.51-.93.7-1.5-.23-.78.41Zm5.15,57.43.56.3,1.23,1.64-.35.27-1.71-1.18Zm-9,16.48-.32-.67.4-.45.2.65Zm-.38.05.52.5-1.17,1.49-.22-.34.33-.88ZM328,184.79l.2-.7.34-.17c.22,0,.36.23.41.71v.71l.23.66.68.31L331,187.7h-.82l.77.44-.38.46.13,1.88.7.2.44,1.2.57.29.11.53.22.78.89,1.67.24.72.29.71a.74.74,0,0,1,0,.83l.2.24a.91.91,0,0,0,.44.26,1,1,0,0,1,.48.36l.44.51a4.26,4.26,0,0,1,.75,1.25l.5.79a1.82,1.82,0,0,1-.64-.62l-.8-.93-1.1-1a.5.5,0,0,0-.58-.18l-.24.16-.16.4.16,1,0,1.88,1.13,2.94.54.61.11.64.58.18.55.61.21.32.49.6a.55.55,0,0,1,0,.82l-.24-.54-1.12-.88h-.43a.54.54,0,0,0-.25.41l-.14,1.73-1-2.22a2.63,2.63,0,0,1-.31-.91l.1-.46a.67.67,0,0,0-.18-.53l-.22-.25.2-.7-.25-1.07-.53-.71-.51-.7a3.88,3.88,0,0,1-.18-.85l-.05-.51-.53-1.95-.45-.49a1.12,1.12,0,0,1-.26-1.06l.38-1.2a2.8,2.8,0,0,0-.21-1.37,1.38,1.38,0,0,0-.53-.7l-.29-.14-.71-.73-.25-1.17-.33-.58-.71-2.28-.37-.27-.13-.52.28-.48.77-.3-.25-.45-.94-1.29.44-.24Zm22.75,10.68.45.39-.11,1.54-.6-.18.26-1.75Zm-2.61,10,.56-.64,0,.35-.32.33-.26,0Zm-3.89,4.16.33.17.09-.23c.08-.13.17-.16.27-.1a.44.44,0,0,1,.14.4.48.48,0,0,1-.31.37,3.5,3.5,0,0,0-.57.27l-.27.16-.36.72-.89.76.1-.3.36-.31-.09-.62,0,0,.5-.38.25-.48.31-.12.16-.29Zm-2.34,3.53,0-.5.24-.64.34.4L342,213.6l-.24.28Zm4.91-5.35-.49,1-.45.29.76-1.68.28-.33q.3-.31.36-.21l.07.54-.53.44Zm-28.18-24.54.77-.31-.23.8Zm1.61-1.11,1,.35.41.78-.47.35-.37-.27-.46.35L320,183ZM185.31,113.74l.36,1-.17.39h-.73l-.17.49,0,.41.35.46c-.31.64-.56.91-.76.82l-.42-.37-.2-.25-.3.57-1.15-.49.31-.67.9.15-.62-.62.55-.24.58.32.07-.52.24-.89,1.14-.53Zm-1.85,1.14-1.18.32-.12.72-.73.7-.42-1.2.72-.09-.22-.55.51-.53,1.67-.17-.23.8Zm6.15-1.51,1-.26.86.45,1.12.18c.12.5,0,.8-.24.89l-.78-.09-.42-.2-.87.18-1-.58Zm-1.26,2,.71-.61.38.25-1.09.36Zm1.84-3.76c.95.5,1.51.66,1.68.49a1.91,1.91,0,0,1,.82-.36l.61-.15c0,.48-.11.74-.33.78a4.3,4.3,0,0,1-.75.35,4.74,4.74,0,0,1-2,.13l.06-.29.57-.43-.89-.24.26-.28Zm7.55-1.27.85-.18.41.69-.46.35-.8-.86Zm-6,.19,1,.25a2.19,2.19,0,0,1-.94.68.81.81,0,0,1-.54-.22l-.32-.24.81-.47Zm-.46,5.49-.46.35-1.14-.7,1.06-.13.54.48Zm1.94-1.12,1.5-.29-.14.81-.76.29.23.44-.86.28-.56-1.12.59-.41Zm-1.82.41.77.35.67,1-.81-.13Zm6.65-1.51.39.78-.8.5c.21.37.17.6-.12.71a1.89,1.89,0,0,1-.73,0l-.4-.1-.28-.22c-.21-.12-.34-.11-.4,0a.3.3,0,0,1-.41.14c-.2-.08-.24-.3-.13-.65l.38-.87.22-.29,1.28-.29,1,.26Zm-2.44-1c0-.31,0-.51.21-.62a2.32,2.32,0,0,1,1.07-.24l-.23.69c-.23.45-.53.65-.91.58l-.14-.41Zm5.39-.67c.39.16.57.38.51.66v.89a1.23,1.23,0,0,1-.79.83,1.61,1.61,0,0,1-1.42.06l-.6-.38.36-1c.53.09.83,0,.88-.27l-.16-.57c-.08-.19,0-.3.21-.35ZM202.78,127a1.63,1.63,0,0,0,.49-.14.65.65,0,0,1,.49-.09.37.37,0,0,0,.46-.35l.8.15-.09-.64.65-.82,1.06-.15,1.42.26.08.42a3.2,3.2,0,0,1,0,.93,2.91,2.91,0,0,1-.64,1.34l-.93,0-1.9.82-1.06.13-1.1.95-1.36.71L200,130.4l-.41,1.28-.79.28,0,.29.49.19-.94.67-.81-.13-.89.37-.28-.26.08.84.47.28-.59.43-.66.21.24.44-.39.36.11.63a1.69,1.69,0,0,1-.35.87,1.27,1.27,0,0,1-1,.26l-.06-.3a.38.38,0,0,0-.48-.21l-1.19.31-.36-.37-.66.21.16-.29,1-.45-.69-.12-.7-.22.27-.37.71-.49-.26-.37.79-.29,0-.42.82-.57-.15-.34.67-.3-.73-.55-.28-.77.69-.49.8.23.56-.22-.34-.58,1-.86.77-.29.72,0,.23-.67.37-.37.91-.46.57.29.16-.36.58-.34,2.06,0,.14-.19.45-.24Zm-15.52-10.59.39-.58,1.12.2.54-.24v.72l-1.19.33-.86-.43Zm-1.7-.38.62.62-.88,1Zm-1.2,32.72.37-.11.67-.06,1.19.4q0,1.13-.27,1.08l-.44-.21-.21-.19-.3.59-.35.24-.49-.16-.51,0-.24-.56.19-.49.33-.15L184,149Zm10.41-5.07.53.61.79.23-.27.37-.49.44-1-.48.09.64-.52-.51-.67.31-1.17-.5-.72-.65,1.16-.11-1-.28.3-.57-1.38.19-.17-.75-.35.24v.51h-.73l-.21-.66-.14-1-.22-.38c-.14-.29-.19-.49-.13-.61l.34-.21h.22l.71.12.3-.57.64-.09,0-.44-.22-.54.3-.47-.36-.38.2-.58h.53l.54-.22,1.21.21.94,0,.69.11-.21.7-.6-.1.22.54-.55.75,0,.51-.18.49.47.81-.11.69.7.75-.2.58.68.23Zm1.9,1.78-.42,0-.33-.48,1.07-.22.56.41-.33.66-.4-.06Zm2-.24,1.67,1.1.46.4.48.81-.66.18-.1-.52L200,147l-.26.36-.37-.15-.41-.8-1.09-.2-.46-.37H198l-.12-.53.36-.36.38.28Zm49.48-33.58,0,.26a.49.49,0,0,0,.42.31l1,.24.25.21a.92.92,0,0,1,.25.58,1.26,1.26,0,0,1-.14.75.68.68,0,0,1-.43.41l-1.26.14-.34.37-.36-.37-.65.11-.6.64-.37,1.09-.33-.58.22-1.4-.48-1.11.53-.85-.71-.83-.38-.11c-.22-.09-.28-.22-.16-.37l.48-.35.3-.06.74.64.22.54.42-.77,1.36.51Zm-7.6,10,.27.35-.77.31-.16-.44Zm-1.39-13.09.52.19c.19.17.06.4-.39.68l-.75.19,0,.32-1.94.66-1.06.16-.57.44.07-.51-1.35.11-.7-.19-.15-.34,1.13-.14-.56-.29.75-1H235l.34.14.57.1c.21-.05.23-.25.09-.62l.16-.48,1,0,.58.24.81.27.56.05Zm2.31.76,1,0,.65.5v.73l.22.74,0,.82-.53.14c.58.7.76,1.14.53,1.31a1.21,1.21,0,0,1-.69.16l-1.38-.15-.64.23-.82-.74-.75.11-.64-.6-.39-.17c0,.75-.14,1.09-.33,1l-.7-.25-.49-.13-.36-.36-.59.55-.35-.47.48-.44c.35-.28.61-.38.77-.31a1.65,1.65,0,0,0,.79.11l-.52-.7.83-.71.64-.21.59.28-.16-.43,1.49-.21.47.28.24.55.61,0v-.72l-.67-.41.7-.51Zm2.32,11.25-1,.27-.44.24-.3-.14,1.4-1.87.78.32-.47,1.18Zm-2.05,1.46.26.35-.77.31-.15-.44Zm2.58-1.49.64-.22.74.61-1.24,0Zm-1.87,1.59,1.82-.48c.23.31.2.49-.08.52l-1.46.1Zm-11.91,8,.86-.29.73.73-1,0-.55-.4Zm.15-1.25.8.2-.64.23-.16-.43Zm1.38-17.35.57-.31,1.92.36.15.34-2.18.82.29-.57-1.09-.37.34-.27Zm33.85,13.93.49.16.19.75-.66.33-1.16.15-.54-.49.43-.15,0-.52,1.27-.23ZM227,128.62l.3.87-1-.68Zm-.46,2.52.22.64-.18.6-.44-.47-1-.36.59-.43-.06-.42.69-.41.18.85Zm-1.29-2.46.39.88-.72-.1.33-.78Zm-4.32,6-.57.43-1-.25.7-.51.88.33Zm3.65,1.47-.35.23a.47.47,0,0,1-.69-.27.92.92,0,0,1-.06-.68q.17-.5.72-.24a.87.87,0,0,1,.58.63C224.79,136,224.72,136.07,224.57,136.19Zm-10.51-.45-.3.59-1.66,0-.5-.07-.26-1,.64-.2.18-.49.44-.14.56.3-.2.8.61,0,.49.17Zm4.21.38-.49.55-.49-.27v-.63l1,.35Zm12.64,6.53-.18.59-.4-.79Zm-.32-.67-.7-.2.45-.25Zm-.91.6-.4-.78.58.17-.18.61Zm.33-.07.4,1.5-.69-1Zm-81.9,39.91c.44-.4.65-.54.63-.41a2.13,2.13,0,0,1-.66.93l-.05.31,1-.47,2.06.62.27,1.08-.47.35-3.46-.28-.95-.23a2.27,2.27,0,0,0,.8-.25,1,1,0,0,0,.48-.44c.07-.16,0-.2-.24-.13l-.38.14.3-.58.66-.64Zm18.76,22c0,.28.2.37.49.26l.52,0,.67.41.44.48,0,.38c.07.24.19.38.36.4a.87.87,0,0,0,.77-.31l.58.18.08,1a.78.78,0,0,1-1.05.07l-.6-.14-.23.12-1,.28c0,.28-.18.49-.6.64a2.65,2.65,0,0,1-1.23.07c-.49-.08-.64-.25-.46-.52a3.48,3.48,0,0,0,.5-1.46l-1.31-.2-.48-.26,1.4-1.15.69.3-.42-.77Z" transform="translate(-138.47 -107.76)"/><path id="PL" class="cls-1" d="M152.12,184.69l.7,1.43-.3.65.58,1.2-.1.69-.67.73,0,.77.5.83-.18.74.29.89.35.4-.48,1-.81.31-.33.78-.6.82-.07.89-.36-.07-.64-.2-.29-.89-.83-.11-.7.53-1.53,0-.26-.6-1.43-.28-.24-1.29-.79-.19-.8-.82-1-.07-.54-.49-.53-.7-.9-.07-.23-.3,0-.71-1-1.39.16-1.16-.4-1,.65-2.21.55-.1c.05-.45.25-.65.61-.6l.55.19.29-.31.66-.58a3.5,3.5,0,0,1,1.52-.38,3.75,3.75,0,0,1,1.53,0c.2.07.31.28.31.63l-.07.52,1.06-.15-.32.19c-.15.14-.1.21.15.2h.27l.95.23,3.46.28.47-.35.74.19Z" transform="translate(-138.47 -107.76)"/><path id="UA" class="cls-1" d="M166.08,204.22l-.42,0-.37-.36-.82,0-.67-.29.49-.56,1.39-.34-1.83-.13-.77.3-.73.73-.59-.18.1.74a3.45,3.45,0,0,1-.74.92l-.49.4-.18-.4-.54-.07-.39.28-.47-.2-.31-.32.51-1.54.69-.46.89-.29-.21-.87-.55-.57-.34-1.09-1.28-1.3-1.33.08-1.22.73-1.09-.23-.67.32-.83-.11-.48-.5-.39-.19-1.25-.06-.34-.1-.6-.66.37-1.22.37.07.06-.9.6-.82.33-.78.81-.3.49-1-.36-.4-.29-.89.18-.74.76-.36,1.49-.27.71.38,1.25.11.9.61,1.51.15.61.52,2.73.46.32-1.28.35-.44.53.15.64-.05.52-.26,3.07.59.4.48-.66,1.29,1.47.44.39.6v.63l.79.81,1.67,0,1.39,1,1.61-.11.42.55,1.43.13.29.87-.71.61-.24,1.2,0,1.13-.82.38-1.12,0-.52.21-.26.78-.6.06a.76.76,0,0,0-.65.13l-.12.18a3.44,3.44,0,0,0-1.2.44l-.5.2h-.24l-.34,0a.94.94,0,0,0-.53.24l-.5.66c-.2.25-.31.27-.32.06a.46.46,0,0,0-.3-.44l-.26-.06,0,.24c-.07.14-.21.18-.42.11l-.64-.07a.29.29,0,0,0-.23.37Z" transform="translate(-138.47 -107.76)"/><path id="BY" class="cls-1" d="M153.09,188l-.59-1.2.31-.65,1.22.11.68-.75h.77l.24-.6.3-.17.28-1.07.81-.16-.08-1,1.57-.26.15-.54.75-.31.79.26.75.73,1-.19.95.21.73,1.28-.32.72.17.79.41,1,.85.39.36.82.56.51-.4.77h-1.46l-.19.82.53.71L164,191l-.53-.15-.36.44-.31,1.28-2.73-.46-.62-.52-1.51-.15-.9-.61-1.24-.12-.72-.37-1.49.26-.76.37-.49-.83,0-.77.67-.73Z" transform="translate(-138.47 -107.76)"/></svg>