<svg id="line" height="512" viewBox="0 0 64 64" width="512" xmlns="http://www.w3.org/2000/svg"><path d="m37.555 36.187a2.447 2.447 0 0 0 .7 2.414 9.261 9.261 0 0 0 1.624.978v-5.879c-.086.022-.164.026-.252.053a3.089 3.089 0 0 0 -2.072 2.434z" fill="#c4a2fc"/><path d="m42.6 42.835c-.252-.089-.484-.174-.717-.26v7.568a4.176 4.176 0 0 0 3.117-3.374 3.412 3.412 0 0 0 -2.4-3.934z" fill="#c4a2fc"/><path d="m41 21a21 21 0 1 0 21 21 21.024 21.024 0 0 0 -21-21zm5.969 26.1a6.142 6.142 0 0 1 -5.087 5.087v1.813a1 1 0 0 1 -2 0v-1.737a7.6 7.6 0 0 1 -4.482-1.482 1 1 0 1 1 1.1-1.674 5.665 5.665 0 0 0 3.386 1.153v-8.475a12.876 12.876 0 0 1 -2.859-1.61 4.426 4.426 0 0 1 -1.434-4.36 5.063 5.063 0 0 1 3.465-3.974 7.417 7.417 0 0 1 .828-.2v-1.641a1 1 0 0 1 2 0v1.565a6.55 6.55 0 0 1 3.51 1.466 1 1 0 0 1 -1.351 1.475 4.563 4.563 0 0 0 -2.159-.915v6.847c.426.165.878.334 1.383.512a5.376 5.376 0 0 1 3.7 6.15z" fill="#c4a2fc"/><g fill="#151a6a"><path d="m39.859 17.533 1.341-1.333a3.113 3.113 0 1 0 -4.4-4.4l-1.328 1.339a20.867 20.867 0 0 0 -9.472-3.899v-2.24h1a3 3 0 0 0 0-6h-8a3 3 0 0 0 0 6h1v2.24a20.867 20.867 0 0 0 -9.468 3.9l-1.332-1.34a3.113 3.113 0 1 0 -4.4 4.4l1.339 1.329a20.987 20.987 0 1 0 37.861 12.471 20.859 20.859 0 0 0 -4.141-12.467zm-1.643-4.323a1.113 1.113 0 1 1 1.574 1.574l-1.2 1.193a21.172 21.172 0 0 0 -1.564-1.564zm-20.216-9.21a1 1 0 0 1 1-1h8a1 1 0 0 1 0 2h-8a1 1 0 0 1 -1-1zm4 3h2v2.051c-.334-.016-.662-.051-1-.051s-.666.035-1 .051zm-15.79 7.784a1.113 1.113 0 1 1 1.574-1.574l1.193 1.2a21.172 21.172 0 0 0 -1.564 1.564zm16.79 34.216a19 19 0 1 1 19-19 19.021 19.021 0 0 1 -19 19z"/><path d="m23 13a17 17 0 1 0 17 17 17.019 17.019 0 0 0 -17-17zm0 32a15 15 0 1 1 15-15 15.017 15.017 0 0 1 -15 15z"/><circle cx="23" cy="18" r="1"/><circle cx="23" cy="42" r="1"/><circle cx="11" cy="30" r="1"/><circle cx="35" cy="30" r="1"/><path d="m13.808 20.808a1 1 0 1 0 1.414 0 1 1 0 0 0 -1.414 0z"/><path d="m30.778 37.778a1 1 0 1 0 1.414 0 1 1 0 0 0 -1.414 0z"/><path d="m13.808 37.778a1 1 0 1 0 1.414 0 1 1 0 0 0 -1.414 0z"/><path d="m30.778 20.808a1 1 0 1 0 1.414 0 1 1 0 0 0 -1.414 0z"/><path d="m23.447 30.9 8-4a1 1 0 0 0 -.894-1.79l-6.553 3.272v-6.382a1 1 0 0 0 -2 0v8a1 1 0 0 0 1.447.9z"/></g></svg>